<svg xmlns="http://www.w3.org/2000/svg" viewBox="0 0 24 24">
  <defs>
    <radialGradient id="instagram-gradient" cx="30%" cy="107%" r="150%">
      <stop offset="0%" style="stop-color:#fdf497"/>
      <stop offset="5%" style="stop-color:#fdf497"/>
      <stop offset="45%" style="stop-color:#fd5949"/>
      <stop offset="60%" style="stop-color:#d6249f"/>
      <stop offset="90%" style="stop-color:#285AEB"/>
    </radialGradient>
  </defs>
  <path fill="url(#instagram-gradient)" d="M12 2.2C15.2 2.2 15.6 2.2 16.9 2.3C18.1 2.4 18.9 2.6 19.6 2.9C20.3 3.2 20.9 3.6 21.5 4.2C22.1 4.8 22.5 5.4 22.8 6.1C23.1 6.8 23.3 7.6 23.4 8.8C23.5 10.1 23.5 10.5 23.5 13.7C23.5 16.9 23.5 17.3 23.4 18.6C23.3 19.8 23.1 20.6 22.8 21.3C22.5 22 22.1 22.6 21.5 23.2C20.9 23.8 20.3 24.2 19.6 24.5C18.9 24.8 18.1 25 16.9 25.1C15.6 25.2 15.2 25.2 12 25.2C8.8 25.2 8.4 25.2 7.1 25.1C5.9 25 5.1 24.8 4.4 24.5C3.7 24.2 3.1 23.8 2.5 23.2C1.9 22.6 1.5 22 1.2 21.3C0.9 20.6 0.7 19.8 0.6 18.6C0.5 17.3 0.5 16.9 0.5 13.7C0.5 10.5 0.5 10.1 0.6 8.8C0.7 7.6 0.9 6.8 1.2 6.1C1.5 5.4 1.9 4.8 2.5 4.2C3.1 3.6 3.7 3.2 4.4 2.9C5.1 2.6 5.9 2.4 7.1 2.3C8.4 2.2 8.8 2.2 12 2.2Z"/>
  <path fill="white" d="M12 6.1C8.6 6.1 5.9 8.8 5.9 12.2C5.9 15.6 8.6 18.3 12 18.3C15.4 18.3 18.1 15.6 18.1 12.2C18.1 8.8 15.4 6.1 12 6.1ZM12 16.1C9.8 16.1 8.1 14.4 8.1 12.2C8.1 10 9.8 8.3 12 8.3C14.2 8.3 15.9 10 15.9 12.2C15.9 14.4 14.2 16.1 12 16.1Z"/>
  <circle fill="white" cx="18.5" cy="5.9" r="1.6"/>
</svg>
